<?xml version="1.0" encoding="UTF-8"?>
<svg width="512px" height="512px" viewBox="0 0 512 512" version="1.1" xmlns="http://www.w3.org/2000/svg" xmlns:xlink="http://www.w3.org/1999/xlink">
    <title>yousign-monogram@3x</title>
    <g id="yousign-monogram" stroke="none" stroke-width="1" fill="none" fill-rule="evenodd">
        <path d="M511.925044,255.962914 C511.925044,397.328239 397.32589,511.923478 255.96448,511.923478 C114.599155,511.923478 0,397.328239 0,255.962914 C0,114.597588 114.599155,0.00234962728 255.96448,0.00234962728 C397.32589,0.00234962728 511.925044,114.597588 511.925044,255.962914" id="bg" fill="#5DE8C1"></path>
        <path d="M389.598357,115.819003 L326.158421,115.819003 C321.803778,115.819003 318.150108,118.027653 316.458376,121.685239 L186.089306,403.804987 C182.145848,412.33805 190.342131,423.584933 200.500353,423.584933 L263.932458,423.584933 C268.291017,423.584933 271.940771,421.376283 273.632503,417.722613 L404.001572,135.602865 C407.94503,127.069802 399.748747,115.819003 389.598357,115.819003" id="Y_bg" fill="#FFFFFF"></path>
        <path d="M368.989385,102.080341 C379.042148,102.080341 387.175852,113.107248 383.511188,121.607409 L383.396516,121.864202 L253.027446,403.980034 C251.378008,407.546181 247.867224,409.734932 243.652945,409.842141 L243.327402,409.84627 L179.895297,409.84627 C169.83478,409.84627 161.700998,398.823201 165.365662,390.326916 L165.480334,390.070241 L295.849403,107.950493 C297.498842,104.380528 301.013348,102.191681 305.224184,102.08447 L305.549448,102.080341 L368.989385,102.080341 Z M368.989385,115.481048 L307.13153,115.481048 L177.999931,394.922221 C178.345032,395.557355 179.192642,396.340487 179.781254,396.435898 L179.895297,396.445563 L241.745319,396.445563 L370.873003,117.008306 C370.531572,116.376844 369.687634,115.587057 369.102694,115.4908 L368.989385,115.481048 Z M234.134485,102.080341 C242.861555,102.080341 249.912781,111.640712 246.741957,119.016116 L246.638418,119.248284 L192.976847,235.37078 C189.337984,243.253046 177.124316,241.663142 172.597157,232.832494 L172.456769,232.551228 L148.705953,116.428731 C145.273286,109.366028 149.164431,102.249783 156.460097,102.083319 L156.722098,102.080341 L234.134485,102.080341 Z" id="Y" fill="#002B44"></path>
    </g>
</svg>